<svg xmlns="http://www.w3.org/2000/svg" viewBox="0 0 671.85 763.04">
	<defs>
		<style>
			.cls-1{fill-rule:evenodd;}.cls-2{font-size:100px;font-family:ElegantLux-Mager, Elegant Lux;}.cls-3{fill:none;stroke:#000;stroke-miterlimit:10;stroke-width:20px;}
		</style>
	</defs>
	<title>
		kiss&amp;amp;cry-logo-curve
	</title>
	<g id="Layer_2" data-name="Layer 2">
		<path class="cls-1" d="M416.94,259.62c4.44-.86,8.29-2,12.19-2.28,7.79-.51,15.67-1.22,23.41-.58,13.29,1.1,26.18,0,39-4.56,3.44,7.4,7,14.33,9.94,21.54,5.74,14.24,15.36,25.24,27.71,33.94,15,10.56,29.28,21.79,41.33,35.83a163.22,163.22,0,0,1,26.44,43.26c.26.61.8,1.42.6,1.86-3.88,8.43,3.16,14.32,5,21.39,1.18,4.47,3.62,8.6,4.93,13,2.51,8.53.49,14.09-6.93,18.88-13.41,8.65-27,17.07-41.12,26l-16.74-29c-8.81,7.08-17.74,12.79-24.78,20.29-9.17,9.76-16.88,20.9-25.13,31.51-9.06,11.66-17.07,24.33-27.33,34.81-8.61,8.79-19.37,15.74-29.93,22.31-19.88,12.38-39.16,26.28-62.4,32-11.75,2.87-23.84,4.37-35.76,6.57a5.59,5.59,0,0,1-6.6-3.06c-4-6.94-8.36-13.64-12-20.72-4.77-9.24-1.9-20.76,6-27.6,7.66-6.62,15.08-13.53,22.72-20.18a6.06,6.06,0,0,1,4.24-1.58c15.25,2.52,26.87-4.16,37-14.48,28.05-28.62,43.15-63.23,49.09-102.66,5.7-37.9.4-74.22-12-110C422.87,277.63,420.11,269.11,416.94,259.62Z" transform="translate(-119.37 -168.17)" />
		<path class="cls-1" d="M426.42,559.19,451.48,543c3.47,6,6.83,11.89,10.25,17.74,4.69,8,5.76,8.31,13.59,3.79q55.61-32.11,111.22-64.24c6.59-3.81,6.91-5.22,3.09-11.79-4.52-7.78-9-15.59-13.45-23.39a15.5,15.5,0,0,1-.72-2.11l23.79-13.73,6.6,11.43c1.83,3.17,3.66,6.35,5.51,9.52,3.52,6,4.1,6.19,10,2.76l43.17-24.92,10.3,17.84c-1.39.91-2.82,1.94-4.34,2.81Q534.85,547.08,399.08,625.26a110.33,110.33,0,0,1-24.78,10.18c-10.53,3-19.68-.77-26.74-9.19-7.28-8.69-8-18.42-3.9-28.59.86-2.15,2.7-4.71,4.67-5.39a10.09,10.09,0,0,1,7.75.79c1.57,1,2.3,4.19,2.36,6.43s-1.32,4.42-1.86,6.68c-2.11,8.7,4.54,16.75,13.27,15a74.29,74.29,0,0,0,20-7.41c15.24-8.22,30.11-17.13,45.1-25.83,4.83-2.8,5.28-4.77,2.44-9.76C433.81,571.92,430.21,565.75,426.42,559.19Z" transform="translate(-119.37 -168.17)" />
		<polygon class="cls-1" points="224.17 451.5 221.47 456.39 226.94 455.56 224.17 451.5" />
		<polygon class="cls-1" points="225.97 454.9 224.19 460.15 229.18 458.66 225.97 454.9" />
		<polygon class="cls-1" points="228.81 457.94 227.11 462.73 231.89 461.17 228.81 457.94" />
		<polygon class="cls-1" points="231.56 460.97 230.29 465.88 234.91 463.92 231.56 460.97" />
		<path class="cls-1" d="M410.42,421l1.63-6.18-14.79-3.16,3-19.62c4.82.51,9.34,1,13.86,1.38a12.06,12.06,0,0,0,.88-2.63l-14.19-2.94,1.88-20.22c5.26-.14,10.15-.25,15-.5a12.86,12.86,0,0,0,.45-2.66l-15.05-1c.19-6.89.37-13.62.55-20.14,4.49-.84,8.76-1.62,13-2.53a22.49,22.49,0,0,0-.26-2.45l-13,.67-2.7-20.59L413.63,315c-.41-2.36-.41-2.36-13.75-.79L395.54,296c4.49-2.59,8.6-4.93,12.63-7.4a12.25,12.25,0,0,0-.85-2.6l-13.05,5.38c-1.59-4.86-3.22-9.39-4.47-14a4.07,4.07,0,0,1,1.26-3.58c6.78-4.15,13.72-8.05,21.44-12.51,2.44,7.05,4.65,12.89,6.47,18.85,3.89,12.72,8,25.38,11.25,38.27,10.54,42.47,6,84.09-9.65,124.4a144.92,144.92,0,0,1-40.39,57.44c-9,7.81-16.77,10-26.81,8l15.22-21.47c4.19-.27,7.49,5.09,11.8,3.45l.46-2.08L371,483l10.87-19.14c3.86,1.29,7.62,2.57,11.41,3.72a20.89,20.89,0,0,0,1-2.25l-10.57-5.46,7.42-21.13,12.68,4.66c.86-2.08.86-2.08-11.63-8.75l4.5-19.79Z" transform="translate(-119.37 -168.17)" />
		<polyline class="cls-1" points="223.11 432.92 225.63 421.83 242.63 418.83 238.9 432.92 223.11 433.4" />
		<text class="cls-2" transform="matrix(0.63, 0.78, -0.78, 0.63, 42.29, 490.19)">
			K
		</text>
		<text class="cls-2" transform="translate(97.32 551.45) rotate(40.18)">
			I
		</text>
		<text class="cls-2" transform="matrix(0.87, 0.49, -0.49, 0.87, 141.03, 585.88)">
			S
		</text>
		<text class="cls-2" transform="translate(213.04 622.42) rotate(17)">
			S
		</text>
		<text class="cls-2" transform="translate(289.06 641.54) rotate(6.45)">
		</text>
		<text class="cls-2" transform="matrix(1, -0.06, 0.06, 1, 334.28, 646.29)">
			&amp;
		</text>
		<text class="cls-2" transform="translate(455.15 628.58) rotate(-23.04)">
			C
		</text>
		<text class="cls-2" transform="matrix(0.79, -0.61, 0.61, 0.79, 545.03, 584.32)">
			R
		</text>
		<text class="cls-2" transform="translate(605.36 533.81) rotate(-49.63)">
			Y
		</text>
	</g>
	<g id="Layer_3" data-name="Layer 3">
		<circle class="cls-3" cx="341.88" cy="280.08" r="268.5" />
	</g>
</svg>
